<svg width="16.722534" height="16.666672" viewBox="0 0 16.7225 16.6667" fill="none" xmlns="http://www.w3.org/2000/svg" xmlns:xlink="http://www.w3.org/1999/xlink">
	<desc>
			Created with Pixso.
	</desc>
	<defs/>
	<path id="Shape" d="M15.2437 3.85768L7.13098 3.85768C5.88501 3.85768 5.71008 1.56685 5.45044 0.703903C5.32471 0.286224 4.94128 0 4.50708 0L1.04663 0C-0.309082 0 -0.388062 2.82727 1.04663 2.82727C1.172 2.82727 1.31091 2.82037 1.45679 2.81314C2.19714 2.7764 3.11731 2.73074 3.35791 3.53223L5.39661 10.3476C5.724 11.4384 6.80786 12.1073 7.92334 11.8932C10.4524 11.4121 13.0328 10.8093 15.3492 9.65639C16.0623 9.30231 16.5439 8.61325 16.64 7.8203C16.749 6.90984 16.7506 5.99895 16.6411 5.08844C16.5566 4.38136 15.9524 3.85768 15.2437 3.85768ZM4.72595 14.9006C4.72595 15.8758 5.51501 16.6667 6.48694 16.6667C7.45874 16.6667 8.2478 15.8758 8.2478 14.9006C8.2478 13.9242 7.45874 13.1334 6.48694 13.1334C5.51501 13.1334 4.72595 13.9242 4.72595 14.9006ZM11.9443 14.9006C11.9443 15.8758 12.7334 16.6667 13.7053 16.6667C14.6771 16.6667 15.4662 15.8758 15.4662 14.9006C15.4662 13.9242 14.6771 13.1334 13.7053 13.1334C12.7334 13.1334 11.9443 13.9242 11.9443 14.9006Z" fill="#172029" fill-opacity="1.000000" fill-rule="evenodd"/>
</svg>
