<svg width="97.759277" height="23.871368" viewBox="0 0 97.7593 23.8714" fill="none" xmlns="http://www.w3.org/2000/svg" xmlns:xlink="http://www.w3.org/1999/xlink">
	<desc>
			Created with Pixso.
	</desc>
	<defs/>
	<path id="Vector" d="M86.2627 7.01724L90.9233 7.01724L90.9233 10.0701L90.9922 10.0701C91.1997 9.59308 91.5103 9.11606 91.9248 8.67087C92.3042 8.22568 92.7529 7.87585 93.271 7.55786C93.7544 7.23987 94.3066 7.01724 94.8936 6.82645C95.4458 6.66745 96.0674 6.60385 96.689 6.57205C96.9995 6.57205 97.3447 6.63565 97.7593 6.73105L97.7593 10.9287C97.5176 10.8969 97.2412 10.8651 96.9307 10.8333C96.5854 10.8015 96.2744 10.7697 95.9985 10.7697C95.1006 10.7697 94.3413 10.9287 93.7197 11.1831C93.0981 11.4693 92.5806 11.8509 92.2007 12.3279C91.8208 12.8049 91.5449 13.3455 91.4067 13.9815C91.2339 14.6175 91.165 15.3171 91.165 16.0485L91.165 23.5322L86.2627 23.5322L86.2627 7.01724Z" fill="#10239E" fill-opacity="1.000000" fill-rule="nonzero"/>
	<path id="Vector" d="M79.6616 13.4727C79.4199 12.3279 79.0054 11.4693 78.4185 10.8651C77.8315 10.2927 76.9341 10.0065 75.7603 9.97467C74.9663 9.97467 74.3105 10.1019 73.7925 10.3563C73.2744 10.6107 72.8604 10.8969 72.5498 11.2467C72.2388 11.6283 72.0317 12.0099 71.8936 12.3915C71.7554 12.8049 71.6865 13.1547 71.6865 13.4727L79.6616 13.4727ZM71.6865 16.3347C71.7554 17.7975 72.1353 18.8788 72.895 19.5147C73.6196 20.1826 74.6899 20.5005 76.0708 20.5005C77.0376 20.5005 77.9009 20.278 78.626 19.8327C79.3164 19.3875 79.7651 18.8788 79.9375 18.3699L84.2529 18.3699C83.5625 20.3416 82.4922 21.7726 81.0771 22.5994C79.627 23.458 77.9009 23.8714 75.8984 23.8714C74.4829 23.8714 73.2056 23.6806 72.1006 23.2672C70.9614 22.8538 69.9951 22.2496 69.2354 21.4864C68.4414 20.7231 67.8198 19.8327 67.4058 18.7515C66.9912 17.7021 66.7842 16.5255 66.7842 15.2535C66.7842 14.0451 66.9912 12.9003 67.4399 11.8191C67.8545 10.7697 68.4761 9.84747 69.3042 9.08426C70.0986 8.32108 71.0649 7.68506 72.1699 7.23987C73.2744 6.79465 74.5176 6.57205 75.8984 6.57205C77.4175 6.57205 78.7295 6.85825 79.8687 7.39886C80.9731 7.93945 81.9058 8.67087 82.6304 9.56128C83.3555 10.4835 83.8735 11.5329 84.2188 12.6777C84.5293 13.8543 84.6328 15.0627 84.564 16.3347L71.6865 16.3347Z" fill="#10239E" fill-opacity="1.000000" fill-rule="nonzero"/>
	<path id="Vector" d="M60.7617 23.5321L55.3066 23.5321L49.2275 7.01718L54.3716 7.01718L58.1348 18.2427L58.2036 18.2427L61.9668 7.01718L66.8345 7.01718L60.7617 23.5321Z" fill="#10239E" fill-opacity="1.000000" fill-rule="nonzero"/>
	<path id="Vector" d="M44.3179 13.4727C44.0762 12.3279 43.6616 11.4693 43.0747 10.8651C42.4878 10.2927 41.5903 10.0065 40.4165 9.97467C39.6226 9.97467 38.9668 10.1019 38.4487 10.3563C37.9307 10.6107 37.5166 10.8969 37.2061 11.2467C36.895 11.6283 36.688 12.0099 36.5498 12.3915C36.4116 12.8049 36.3428 13.1547 36.3428 13.4727L44.3179 13.4727ZM36.3428 16.3347C36.4116 17.7975 36.7915 18.8788 37.5513 19.5147C38.2759 20.1826 39.3462 20.5005 40.7271 20.5005C41.6938 20.5005 42.5571 20.278 43.2822 19.8327C43.9727 19.3875 44.4214 18.8788 44.5938 18.3699L48.9092 18.3699C48.2188 20.3416 47.1484 21.7726 45.7334 22.5994C44.2832 23.458 42.5571 23.8714 40.5547 23.8714C39.1392 23.8714 37.8618 23.6806 36.7568 23.2672C35.6177 22.8538 34.6509 22.2496 33.8916 21.4864C33.0977 20.7231 32.4761 19.8327 32.062 18.7515C31.6475 17.7021 31.4404 16.5255 31.4404 15.2535C31.4404 14.0451 31.6475 12.9003 32.0962 11.8191C32.5107 10.7697 33.1323 9.84747 33.9604 9.08426C34.7549 8.32108 35.7212 7.68506 36.8262 7.23987C37.9307 6.79465 39.1738 6.57205 40.5547 6.57205C42.0737 6.57205 43.3857 6.85825 44.5249 7.39886C45.6294 7.93945 46.5615 8.67087 47.2866 9.56128C48.0117 10.4835 48.5298 11.5329 48.875 12.6777C49.1855 13.8543 49.2891 15.0627 49.2202 16.3347L36.3428 16.3347Z" fill="#10239E" fill-opacity="1.000000" fill-rule="nonzero"/>
	<path id="Vector" d="M24.8569 0L29.6904 0L29.6904 23.5322L24.8569 23.5322L24.8569 0Z" fill="#10239E" fill-opacity="1.000000" fill-rule="nonzero"/>
	<path id="Vector" d="M17.5474 8.09607C17.4434 7.52902 17.2358 7.02499 16.9243 6.55246C16.5781 6.07993 16.1978 5.67041 15.7129 5.29236C15.2285 4.94586 14.6748 4.66232 14.0518 4.47333C13.4287 4.2843 12.8057 4.18979 12.1479 4.15829C10.9023 4.15829 9.86377 4.37881 9.0332 4.81985C8.16797 5.26086 7.47559 5.82791 6.95654 6.55246C6.40283 7.27701 6.02197 8.09607 5.77979 9.00964C5.5376 9.95471 5.43359 10.8998 5.43359 11.8763C5.43359 12.8214 5.5376 13.7665 5.77979 14.6485C6.02197 15.5306 6.40283 16.3497 6.95654 17.0427C7.47559 17.7672 8.16797 18.3343 9.0332 18.7753C9.86377 19.2164 10.9023 19.4054 12.1479 19.4054C13.8096 19.4054 15.0898 18.9644 16.0244 18.0193C16.959 17.1057 17.5474 15.8771 17.7549 14.365L23.0156 14.365C22.8774 15.7826 22.4966 17.0427 21.9429 18.1768C21.3545 19.3109 20.5933 20.2874 19.6587 21.075C18.6895 21.894 17.582 22.4926 16.3359 22.9021C15.0552 23.3431 13.6709 23.5322 12.1479 23.5322C10.2446 23.5322 8.54883 23.2487 7.02588 22.6501C5.50293 22.0515 4.25684 21.2325 3.21875 20.1614C2.18066 19.1219 1.38428 17.8932 0.830566 16.4757C0.276855 15.0581 0 13.5145 0 11.8763C0 10.2067 0.276855 8.66312 0.830566 7.21402C1.38428 5.76489 2.18066 4.50482 3.21875 3.43375C4.25684 2.39417 5.50293 1.54361 7.02588 0.913574C8.54883 0.315033 10.2446 0.0314941 12.1479 0C13.498 0 14.7783 0.189026 15.9897 0.535522C17.2012 0.913574 18.2739 1.4176 19.2432 2.11066C20.2124 2.80371 21.0083 3.62274 21.6313 4.63083C22.2544 5.63889 22.6353 6.80447 22.8081 8.09607L17.5474 8.09607Z" fill="#10239E" fill-opacity="1.000000" fill-rule="nonzero"/>
</svg>
